w1000b1r100.ufo
<glyph name="_4" format="2">
  <advance width="1000"/>
  <unicode hex="0104"/>
  <unicode hex="0063"/>
  <outline>
    <component base="cap" xOffset="0" yOffset="0" />
    <component base="cap" xOffset="0" yOffset="39" />
    <contour>
      <point x="0" y="1" type="line"/>
      <point x="0" y="40" type="line"/>
      <point x="1" y="40" type="line"/>
      <point x="1" y="1" type="line"/>
    </contour>
  </outline>
</glyph>
<glyph name="_52" format="2">
  <advance width="1000"/>
  <unicode hex="0134"/>
  <unicode hex="0041"/>
  <outline>
    <component base="cap" xOffset="0" yOffset="0" />
    <component base="cap" xOffset="0" yOffset="519" />
    <contour>
      <point x="0" y="1" type="line"/>
      <point x="0" y="520" type="line"/>
      <point x="1" y="520" type="line"/>
      <point x="1" y="1" type="line"/>
    </contour>
  </outline>
</glyph>
<glyph name="_68" format="2">
  <advance width="1000"/>
  <unicode hex="0144"/>
  <unicode hex="0049"/>
  <outline>
    <component base="cap" xOffset="0" yOffset="0" />
    <component base="cap" xOffset="0" yOffset="679" />
    <contour>
      <point x="0" y="1" type="line"/>
      <point x="0" y="680" type="line"/>
      <point x="1" y="680" type="line"/>
      <point x="1" y="1" type="line"/>
    </contour>
  </outline>
</glyph>
<glyph name="_69" format="2">
  <advance width="1000"/>
  <unicode hex="0145"/>
  
  <outline>
    <component base="cap" xOffset="0" yOffset="0" />
    <component base="cap" xOffset="0" yOffset="689" />
    <contour>
      <point x="0" y="1" type="line"/>
      <point x="0" y="690" type="line"/>
      <point x="1" y="690" type="line"/>
      <point x="1" y="1" type="line"/>
    </contour>
  </outline>
</glyph>
<glyph name="_104" format="2">
  <advance width="1000"/>
  <unicode hex="0168"/>
  
  <outline>
    <component base="cap" xOffset="0" yOffset="0" />
    <component base="cap" xOffset="0" yOffset="1039" />
    <contour>
      <point x="0" y="1" type="line"/>
      <point x="0" y="1040" type="line"/>
      <point x="1" y="1040" type="line"/>
      <point x="1" y="1" type="line"/>
    </contour>
  </outline>
</glyph>
<glyph name="_13.center" format="2">
  <advance width="1000"/>
  <unicode hex="040D"/>
  
  <outline>
    <component base="cap" xOffset="0" yOffset="435" />
    <component base="cap" xOffset="0" yOffset="564" />
    <contour>
      <point x="0" y="436" type="line"/>
      <point x="0" y="565" type="line"/>
      <point x="1" y="565" type="line"/>
      <point x="1" y="436" type="line"/>
    </contour>
  </outline>
</glyph>
<glyph name="_22.center" format="2">
  <advance width="1000"/>
  <unicode hex="0416"/>
  
  <outline>
    <component base="cap" xOffset="0" yOffset="390" />
    <component base="cap" xOffset="0" yOffset="609" />
    <contour>
      <point x="0" y="391" type="line"/>
      <point x="0" y="610" type="line"/>
      <point x="1" y="610" type="line"/>
      <point x="1" y="391" type="line"/>
    </contour>
  </outline>
</glyph>
<glyph name="_27.center" format="2">
  <advance width="1000"/>
  <unicode hex="041B"/>
  
  <outline>
    <component base="cap" xOffset="0" yOffset="365" />
    <component base="cap" xOffset="0" yOffset="634" />
    <contour>
      <point x="0" y="366" type="line"/>
      <point x="0" y="635" type="line"/>
      <point x="1" y="635" type="line"/>
      <point x="1" y="366" type="line"/>
    </contour>
  </outline>
</glyph>
<glyph name="_45.center" format="2">
  <advance width="1000"/>
  <unicode hex="042D"/>
  
  <outline>
    <component base="cap" xOffset="0" yOffset="275" />
    <component base="cap" xOffset="0" yOffset="724" />
    <contour>
      <point x="0" y="276" type="line"/>
      <point x="0" y="725" type="line"/>
      <point x="1" y="725" type="line"/>
      <point x="1" y="276" type="line"/>
    </contour>
  </outline>
</glyph>
<glyph name="_53.center" format="2">
  <advance width="1000"/>
  <unicode hex="0435"/>
  
  <outline>
    <component base="cap" xOffset="0" yOffset="235" />
    <component base="cap" xOffset="0" yOffset="764" />
    <contour>
      <point x="0" y="236" type="line"/>
      <point x="0" y="765" type="line"/>
      <point x="1" y="765" type="line"/>
      <point x="1" y="236" type="line"/>
    </contour>
  </outline>
</glyph>
<glyph name="_54.center" format="2">
  <advance width="1000"/>
  <unicode hex="0436"/>
  
  <outline>
    <component base="cap" xOffset="0" yOffset="230" />
    <component base="cap" xOffset="0" yOffset="769" />
    <contour>
      <point x="0" y="231" type="line"/>
      <point x="0" y="770" type="line"/>
      <point x="1" y="770" type="line"/>
      <point x="1" y="231" type="line"/>
    </contour>
  </outline>
</glyph>
<glyph name="_71.center" format="2">
  <advance width="1000"/>
  <unicode hex="0447"/>
  
  <outline>
    <component base="cap" xOffset="0" yOffset="145" />
    <component base="cap" xOffset="0" yOffset="854" />
    <contour>
      <point x="0" y="146" type="line"/>
      <point x="0" y="855" type="line"/>
      <point x="1" y="855" type="line"/>
      <point x="1" y="146" type="line"/>
    </contour>
  </outline>
</glyph>
<glyph name="_78.center" format="2">
  <advance width="1000"/>
  <unicode hex="044E"/>
  
  <outline>
    <component base="cap" xOffset="0" yOffset="110" />
    <component base="cap" xOffset="0" yOffset="889" />
    <contour>
      <point x="0" y="111" type="line"/>
      <point x="0" y="890" type="line"/>
      <point x="1" y="890" type="line"/>
      <point x="1" y="111" type="line"/>
    </contour>
  </outline>
</glyph>
<glyph name="_106.center" format="2">
  <advance width="1000"/>
  <unicode hex="046A"/>
  
  <outline>
    <component base="cap" xOffset="0" yOffset="-30" />
    <component base="cap" xOffset="0" yOffset="1029" />
    <contour>
      <point x="0" y="-30" type="line"/>
      <point x="0" y="1030" type="line"/>
      <point x="1" y="1030" type="line"/>
      <point x="1" y="-30" type="line"/>
    </contour>
  </outline>
</glyph>
<glyph name="_14.clip.center" format="2">
  <advance width="1000"/>
  
  <outline>
    <contour>
        <point x="0.000" y="538.500"/>

        <point x="31.500" y="570.000"/>
        <point x="70.000" y="570.000" type="curve" smooth="yes"/>
        <point x="-69.000" y="570.000" type="line"/>
        <point x="-30.500" y="570.000"/>

        <point x="1.000" y="538.500"/>
        <point x="1.000" y="500.000" type="curve" smooth="yes"/>
        <point x="1.000" y="500.000" type="line"/>
        <point x="1.000" y="461.500"/>

        <point x="-30.500" y="430.000"/>
        <point x="-69.000" y="430.000" type="curve" smooth="yes"/>
        <point x="70.000" y="430.000" type="line"/>
        <point x="31.500" y="430.000"/>

        <point x="0.000" y="461.500"/>
        <point x="0.000" y="500.000" type="curve" smooth="yes"/>
        <point x="0.000" y="500.000" type="line"/>
    </contour>
  </outline>
</glyph>
<glyph name="_15.clip" format="2">
  <advance width="1000"/>
  
  <outline>
    <contour>
        <point x="0.000" y="116.250"/>

        <point x="33.750" y="150.000"/>
        <point x="75.000" y="150.000" type="curve" smooth="yes"/>
        <point x="-74.000" y="150.000" type="line"/>
        <point x="-32.750" y="150.000"/>

        <point x="1.000" y="116.250"/>
        <point x="1.000" y="75.000" type="curve" smooth="yes"/>
        <point x="1.000" y="75.000" type="line"/>
        <point x="1.000" y="33.750"/>

        <point x="-32.750" y="0.000"/>
        <point x="-74.000" y="0.000" type="curve" smooth="yes"/>
        <point x="75.000" y="0.000" type="line"/>
        <point x="33.750" y="0.000"/>

        <point x="0.000" y="33.750"/>
        <point x="0.000" y="75.000" type="curve" smooth="yes"/>
        <point x="0.000" y="75.000" type="line"/>
    </contour>
  </outline>
</glyph>
<glyph name="_2.clip.center" format="2">
  <advance width="1000"/>
  
  <outline>
    <contour>
        <point x="0.000" y="505.500"/>

        <point x="4.500" y="510.000"/>
        <point x="10.000" y="510.000" type="curve" smooth="yes"/>
        <point x="-9.000" y="510.000" type="line"/>
        <point x="-3.500" y="510.000"/>

        <point x="1.000" y="505.500"/>
        <point x="1.000" y="500.000" type="curve" smooth="yes"/>
        <point x="1.000" y="500.000" type="line"/>
        <point x="1.000" y="494.500"/>

        <point x="-3.500" y="490.000"/>
        <point x="-9.000" y="490.000" type="curve" smooth="yes"/>
        <point x="10.000" y="490.000" type="line"/>
        <point x="4.500" y="490.000"/>

        <point x="0.000" y="494.500"/>
        <point x="0.000" y="500.000" type="curve" smooth="yes"/>
        <point x="0.000" y="500.000" type="line"/>
    </contour>
  </outline>
</glyph>
<glyph name="_21.clip" format="2">
  <advance width="1000"/>
  
  <outline>
    <contour>
        <point x="0.000" y="162.750"/>

        <point x="47.250" y="210.000"/>
        <point x="105.000" y="210.000" type="curve" smooth="yes"/>
        <point x="-104.000" y="210.000" type="line"/>
        <point x="-46.250" y="210.000"/>

        <point x="1.000" y="162.750"/>
        <point x="1.000" y="105.000" type="curve" smooth="yes"/>
        <point x="1.000" y="105.000" type="line"/>
        <point x="1.000" y="47.250"/>

        <point x="-46.250" y="0.000"/>
        <point x="-104.000" y="0.000" type="curve" smooth="yes"/>
        <point x="105.000" y="0.000" type="line"/>
        <point x="47.250" y="0.000"/>

        <point x="0.000" y="47.250"/>
        <point x="0.000" y="105.000" type="curve" smooth="yes"/>
        <point x="0.000" y="105.000" type="line"/>
    </contour>
  </outline>
</glyph>
<glyph name="_23.clip.center" format="2">
  <advance width="1000"/>
  
  <outline>
    <contour>
        <point x="0.000" y="563.250"/>

        <point x="51.750" y="615.000"/>
        <point x="115.000" y="615.000" type="curve" smooth="yes"/>
        <point x="-114.000" y="615.000" type="line"/>
        <point x="-50.750" y="615.000"/>

        <point x="1.000" y="563.250"/>
        <point x="1.000" y="500.000" type="curve" smooth="yes"/>
        <point x="1.000" y="500.000" type="line"/>
        <point x="1.000" y="436.750"/>

        <point x="-50.750" y="385.000"/>
        <point x="-114.000" y="385.000" type="curve" smooth="yes"/>
        <point x="115.000" y="385.000" type="line"/>
        <point x="51.750" y="385.000"/>

        <point x="0.000" y="436.750"/>
        <point x="0.000" y="500.000" type="curve" smooth="yes"/>
        <point x="0.000" y="500.000" type="line"/>
    </contour>
  </outline>
</glyph>
<glyph name="_26.clip.center" format="2">
  <advance width="1000"/>
  
  <outline>
    <contour>
        <point x="0.000" y="571.500"/>

        <point x="58.500" y="630.000"/>
        <point x="130.000" y="630.000" type="curve" smooth="yes"/>
        <point x="-129.000" y="630.000" type="line"/>
        <point x="-57.500" y="630.000"/>

        <point x="1.000" y="571.500"/>
        <point x="1.000" y="500.000" type="curve" smooth="yes"/>
        <point x="1.000" y="500.000" type="line"/>
        <point x="1.000" y="428.500"/>

        <point x="-57.500" y="370.000"/>
        <point x="-129.000" y="370.000" type="curve" smooth="yes"/>
        <point x="130.000" y="370.000" type="line"/>
        <point x="58.500" y="370.000"/>

        <point x="0.000" y="428.500"/>
        <point x="0.000" y="500.000" type="curve" smooth="yes"/>
        <point x="0.000" y="500.000" type="line"/>
    </contour>
  </outline>
</glyph>
<glyph name="_27.clip.center" format="2">
  <advance width="1000"/>
  
  <outline>
    <contour>
        <point x="0.000" y="574.250"/>

        <point x="60.750" y="635.000"/>
        <point x="135.000" y="635.000" type="curve" smooth="yes"/>
        <point x="-134.000" y="635.000" type="line"/>
        <point x="-59.750" y="635.000"/>

        <point x="1.000" y="574.250"/>
        <point x="1.000" y="500.000" type="curve" smooth="yes"/>
        <point x="1.000" y="500.000" type="line"/>
        <point x="1.000" y="425.750"/>

        <point x="-59.750" y="365.000"/>
        <point x="-134.000" y="365.000" type="curve" smooth="yes"/>
        <point x="135.000" y="365.000" type="line"/>
        <point x="60.750" y="365.000"/>

        <point x="0.000" y="425.750"/>
        <point x="0.000" y="500.000" type="curve" smooth="yes"/>
        <point x="0.000" y="500.000" type="line"/>
    </contour>
  </outline>
</glyph>
<glyph name="_28.clip" format="2">
  <advance width="1000"/>
  
  <outline>
    <contour>
        <point x="0.000" y="217.000"/>

        <point x="63.000" y="280.000"/>
        <point x="140.000" y="280.000" type="curve" smooth="yes"/>
        <point x="-139.000" y="280.000" type="line"/>
        <point x="-62.000" y="280.000"/>

        <point x="1.000" y="217.000"/>
        <point x="1.000" y="140.000" type="curve" smooth="yes"/>
        <point x="1.000" y="140.000" type="line"/>
        <point x="1.000" y="63.000"/>

        <point x="-62.000" y="0.000"/>
        <point x="-139.000" y="0.000" type="curve" smooth="yes"/>
        <point x="140.000" y="0.000" type="line"/>
        <point x="63.000" y="0.000"/>

        <point x="0.000" y="63.000"/>
        <point x="0.000" y="140.000" type="curve" smooth="yes"/>
        <point x="0.000" y="140.000" type="line"/>
    </contour>
  </outline>
</glyph>
<glyph name="_31.clip" format="2">
  <advance width="1000"/>
  
  <outline>
    <contour>
        <point x="0.000" y="240.250"/>

        <point x="69.750" y="310.000"/>
        <point x="155.000" y="310.000" type="curve" smooth="yes"/>
        <point x="-154.000" y="310.000" type="line"/>
        <point x="-68.750" y="310.000"/>

        <point x="1.000" y="240.250"/>
        <point x="1.000" y="155.000" type="curve" smooth="yes"/>
        <point x="1.000" y="155.000" type="line"/>
        <point x="1.000" y="69.750"/>

        <point x="-68.750" y="0.000"/>
        <point x="-154.000" y="0.000" type="curve" smooth="yes"/>
        <point x="155.000" y="0.000" type="line"/>
        <point x="69.750" y="0.000"/>

        <point x="0.000" y="69.750"/>
        <point x="0.000" y="155.000" type="curve" smooth="yes"/>
        <point x="0.000" y="155.000" type="line"/>
    </contour>
  </outline>
</glyph>
<glyph name="_38.clip.center" format="2">
  <advance width="1000"/>
  
  <outline>
    <contour>
        <point x="0.000" y="604.500"/>

        <point x="85.500" y="690.000"/>
        <point x="190.000" y="690.000" type="curve" smooth="yes"/>
        <point x="-189.000" y="690.000" type="line"/>
        <point x="-84.500" y="690.000"/>

        <point x="1.000" y="604.500"/>
        <point x="1.000" y="500.000" type="curve" smooth="yes"/>
        <point x="1.000" y="500.000" type="line"/>
        <point x="1.000" y="395.500"/>

        <point x="-84.500" y="310.000"/>
        <point x="-189.000" y="310.000" type="curve" smooth="yes"/>
        <point x="190.000" y="310.000" type="line"/>
        <point x="85.500" y="310.000"/>

        <point x="0.000" y="395.500"/>
        <point x="0.000" y="500.000" type="curve" smooth="yes"/>
        <point x="0.000" y="500.000" type="line"/>
    </contour>
  </outline>
</glyph>
<glyph name="_4.clip.center" format="2">
  <advance width="1000"/>
  
  <outline>
    <contour>
        <point x="0.000" y="511.000"/>

        <point x="9.000" y="520.000"/>
        <point x="20.000" y="520.000" type="curve" smooth="yes"/>
        <point x="-19.000" y="520.000" type="line"/>
        <point x="-8.000" y="520.000"/>

        <point x="1.000" y="511.000"/>
        <point x="1.000" y="500.000" type="curve" smooth="yes"/>
        <point x="1.000" y="500.000" type="line"/>
        <point x="1.000" y="489.000"/>

        <point x="-8.000" y="480.000"/>
        <point x="-19.000" y="480.000" type="curve" smooth="yes"/>
        <point x="20.000" y="480.000" type="line"/>
        <point x="9.000" y="480.000"/>

        <point x="0.000" y="489.000"/>
        <point x="0.000" y="500.000" type="curve" smooth="yes"/>
        <point x="0.000" y="500.000" type="line"/>
    </contour>
  </outline>
</glyph>
<glyph name="_41.clip.center" format="2">
  <advance width="1000"/>
  
  <outline>
    <contour>
        <point x="0.000" y="612.750"/>

        <point x="92.250" y="705.000"/>
        <point x="205.000" y="705.000" type="curve" smooth="yes"/>
        <point x="-204.000" y="705.000" type="line"/>
        <point x="-91.250" y="705.000"/>

        <point x="1.000" y="612.750"/>
        <point x="1.000" y="500.000" type="curve" smooth="yes"/>
        <point x="1.000" y="500.000" type="line"/>
        <point x="1.000" y="387.250"/>

        <point x="-91.250" y="295.000"/>
        <point x="-204.000" y="295.000" type="curve" smooth="yes"/>
        <point x="205.000" y="295.000" type="line"/>
        <point x="92.250" y="295.000"/>

        <point x="0.000" y="387.250"/>
        <point x="0.000" y="500.000" type="curve" smooth="yes"/>
        <point x="0.000" y="500.000" type="line"/>
    </contour>
  </outline>
</glyph>
<glyph name="_43.clip.center" format="2">
  <advance width="1000"/>
  
  <outline>
    <contour>
        <point x="0.000" y="618.250"/>

        <point x="96.750" y="715.000"/>
        <point x="215.000" y="715.000" type="curve" smooth="yes"/>
        <point x="-214.000" y="715.000" type="line"/>
        <point x="-95.750" y="715.000"/>

        <point x="1.000" y="618.250"/>
        <point x="1.000" y="500.000" type="curve" smooth="yes"/>
        <point x="1.000" y="500.000" type="line"/>
        <point x="1.000" y="381.750"/>

        <point x="-95.750" y="285.000"/>
        <point x="-214.000" y="285.000" type="curve" smooth="yes"/>
        <point x="215.000" y="285.000" type="line"/>
        <point x="96.750" y="285.000"/>

        <point x="0.000" y="381.750"/>
        <point x="0.000" y="500.000" type="curve" smooth="yes"/>
        <point x="0.000" y="500.000" type="line"/>
    </contour>
  </outline>
</glyph>
<glyph name="_44.clip.center" format="2">
  <advance width="1000"/>
  
  <outline>
    <contour>
        <point x="0.000" y="621.000"/>

        <point x="99.000" y="720.000"/>
        <point x="220.000" y="720.000" type="curve" smooth="yes"/>
        <point x="-219.000" y="720.000" type="line"/>
        <point x="-98.000" y="720.000"/>

        <point x="1.000" y="621.000"/>
        <point x="1.000" y="500.000" type="curve" smooth="yes"/>
        <point x="1.000" y="500.000" type="line"/>
        <point x="1.000" y="379.000"/>

        <point x="-98.000" y="280.000"/>
        <point x="-219.000" y="280.000" type="curve" smooth="yes"/>
        <point x="220.000" y="280.000" type="line"/>
        <point x="99.000" y="280.000"/>

        <point x="0.000" y="379.000"/>
        <point x="0.000" y="500.000" type="curve" smooth="yes"/>
        <point x="0.000" y="500.000" type="line"/>
    </contour>
  </outline>
</glyph>
<glyph name="_48.clip" format="2">
  <advance width="1000"/>
  
  <outline>
    <contour>
        <point x="0.000" y="372.000"/>

        <point x="108.000" y="480.000"/>
        <point x="240.000" y="480.000" type="curve" smooth="yes"/>
        <point x="-239.000" y="480.000" type="line"/>
        <point x="-107.000" y="480.000"/>

        <point x="1.000" y="372.000"/>
        <point x="1.000" y="240.000" type="curve" smooth="yes"/>
        <point x="1.000" y="240.000" type="line"/>
        <point x="1.000" y="108.000"/>

        <point x="-107.000" y="0.000"/>
        <point x="-239.000" y="0.000" type="curve" smooth="yes"/>
        <point x="240.000" y="0.000" type="line"/>
        <point x="108.000" y="0.000"/>

        <point x="0.000" y="108.000"/>
        <point x="0.000" y="240.000" type="curve" smooth="yes"/>
        <point x="0.000" y="240.000" type="line"/>
    </contour>
  </outline>
</glyph>
<glyph name="_49.clip" format="2">
  <advance width="1000"/>
  
  <outline>
    <contour>
        <point x="0.000" y="379.750"/>

        <point x="110.250" y="490.000"/>
        <point x="245.000" y="490.000" type="curve" smooth="yes"/>
        <point x="-244.000" y="490.000" type="line"/>
        <point x="-109.250" y="490.000"/>

        <point x="1.000" y="379.750"/>
        <point x="1.000" y="245.000" type="curve" smooth="yes"/>
        <point x="1.000" y="245.000" type="line"/>
        <point x="1.000" y="110.250"/>

        <point x="-109.250" y="0.000"/>
        <point x="-244.000" y="0.000" type="curve" smooth="yes"/>
        <point x="245.000" y="0.000" type="line"/>
        <point x="110.250" y="0.000"/>

        <point x="0.000" y="110.250"/>
        <point x="0.000" y="245.000" type="curve" smooth="yes"/>
        <point x="0.000" y="245.000" type="line"/>
    </contour>
  </outline>
</glyph>
<glyph name="_53.clip.center" format="2">
  <advance width="1000"/>
  
  <outline>
    <contour>
        <point x="0.000" y="645.750"/>

        <point x="119.250" y="765.000"/>
        <point x="265.000" y="765.000" type="curve" smooth="yes"/>
        <point x="-264.000" y="765.000" type="line"/>
        <point x="-118.250" y="765.000"/>

        <point x="1.000" y="645.750"/>
        <point x="1.000" y="500.000" type="curve" smooth="yes"/>
        <point x="1.000" y="500.000" type="line"/>
        <point x="1.000" y="354.250"/>

        <point x="-118.250" y="235.000"/>
        <point x="-264.000" y="235.000" type="curve" smooth="yes"/>
        <point x="265.000" y="235.000" type="line"/>
        <point x="119.250" y="235.000"/>

        <point x="0.000" y="354.250"/>
        <point x="0.000" y="500.000" type="curve" smooth="yes"/>
        <point x="0.000" y="500.000" type="line"/>
    </contour>
  </outline>
</glyph>
<glyph name="_56.clip.center" format="2">
  <advance width="1000"/>
  
  <outline>
    <contour>
        <point x="0.000" y="654.000"/>

        <point x="126.000" y="780.000"/>
        <point x="280.000" y="780.000" type="curve" smooth="yes"/>
        <point x="-279.000" y="780.000" type="line"/>
        <point x="-125.000" y="780.000"/>

        <point x="1.000" y="654.000"/>
        <point x="1.000" y="500.000" type="curve" smooth="yes"/>
        <point x="1.000" y="500.000" type="line"/>
        <point x="1.000" y="346.000"/>

        <point x="-125.000" y="220.000"/>
        <point x="-279.000" y="220.000" type="curve" smooth="yes"/>
        <point x="280.000" y="220.000" type="line"/>
        <point x="126.000" y="220.000"/>

        <point x="0.000" y="346.000"/>
        <point x="0.000" y="500.000" type="curve" smooth="yes"/>
        <point x="0.000" y="500.000" type="line"/>
    </contour>
  </outline>
</glyph>
<glyph name="_58.clip.center" format="2">
  <advance width="1000"/>
  
  <outline>
    <contour>
        <point x="0.000" y="659.500"/>

        <point x="130.500" y="790.000"/>
        <point x="290.000" y="790.000" type="curve" smooth="yes"/>
        <point x="-289.000" y="790.000" type="line"/>
        <point x="-129.500" y="790.000"/>

        <point x="1.000" y="659.500"/>
        <point x="1.000" y="500.000" type="curve" smooth="yes"/>
        <point x="1.000" y="500.000" type="line"/>
        <point x="1.000" y="340.500"/>

        <point x="-129.500" y="210.000"/>
        <point x="-289.000" y="210.000" type="curve" smooth="yes"/>
        <point x="290.000" y="210.000" type="line"/>
        <point x="130.500" y="210.000"/>

        <point x="0.000" y="340.500"/>
        <point x="0.000" y="500.000" type="curve" smooth="yes"/>
        <point x="0.000" y="500.000" type="line"/>
    </contour>
  </outline>
</glyph>
<glyph name="_59.clip" format="2">
  <advance width="1000"/>
  
  <outline>
    <contour>
        <point x="0.000" y="457.250"/>

        <point x="132.750" y="590.000"/>
        <point x="295.000" y="590.000" type="curve" smooth="yes"/>
        <point x="-294.000" y="590.000" type="line"/>
        <point x="-131.750" y="590.000"/>

        <point x="1.000" y="457.250"/>
        <point x="1.000" y="295.000" type="curve" smooth="yes"/>
        <point x="1.000" y="295.000" type="line"/>
        <point x="1.000" y="132.750"/>

        <point x="-131.750" y="0.000"/>
        <point x="-294.000" y="0.000" type="curve" smooth="yes"/>
        <point x="295.000" y="0.000" type="line"/>
        <point x="132.750" y="0.000"/>

        <point x="0.000" y="132.750"/>
        <point x="0.000" y="295.000" type="curve" smooth="yes"/>
        <point x="0.000" y="295.000" type="line"/>
    </contour>
  </outline>
</glyph>
<glyph name="_64.clip.center" format="2">
  <advance width="1000"/>
  
  <outline>
    <contour>
        <point x="0.000" y="676.000"/>

        <point x="144.000" y="820.000"/>
        <point x="320.000" y="820.000" type="curve" smooth="yes"/>
        <point x="-319.000" y="820.000" type="line"/>
        <point x="-143.000" y="820.000"/>

        <point x="1.000" y="676.000"/>
        <point x="1.000" y="500.000" type="curve" smooth="yes"/>
        <point x="1.000" y="500.000" type="line"/>
        <point x="1.000" y="324.000"/>

        <point x="-143.000" y="180.000"/>
        <point x="-319.000" y="180.000" type="curve" smooth="yes"/>
        <point x="320.000" y="180.000" type="line"/>
        <point x="144.000" y="180.000"/>

        <point x="0.000" y="324.000"/>
        <point x="0.000" y="500.000" type="curve" smooth="yes"/>
        <point x="0.000" y="500.000" type="line"/>
    </contour>
  </outline>
</glyph>
<glyph name="_70.clip" format="2">
  <advance width="1000"/>
  
  <outline>
    <contour>
        <point x="0.000" y="542.500"/>

        <point x="157.500" y="700.000"/>
        <point x="350.000" y="700.000" type="curve" smooth="yes"/>
        <point x="-349.000" y="700.000" type="line"/>
        <point x="-156.500" y="700.000"/>

        <point x="1.000" y="542.500"/>
        <point x="1.000" y="350.000" type="curve" smooth="yes"/>
        <point x="1.000" y="350.000" type="line"/>
        <point x="1.000" y="157.500"/>

        <point x="-156.500" y="0.000"/>
        <point x="-349.000" y="0.000" type="curve" smooth="yes"/>
        <point x="350.000" y="0.000" type="line"/>
        <point x="157.500" y="0.000"/>

        <point x="0.000" y="157.500"/>
        <point x="0.000" y="350.000" type="curve" smooth="yes"/>
        <point x="0.000" y="350.000" type="line"/>
    </contour>
  </outline>
</glyph>
<glyph name="_71.clip.center" format="2">
  <advance width="1000"/>
  
  <outline>
    <contour>
        <point x="0.000" y="695.250"/>

        <point x="159.750" y="855.000"/>
        <point x="355.000" y="855.000" type="curve" smooth="yes"/>
        <point x="-354.000" y="855.000" type="line"/>
        <point x="-158.750" y="855.000"/>

        <point x="1.000" y="695.250"/>
        <point x="1.000" y="500.000" type="curve" smooth="yes"/>
        <point x="1.000" y="500.000" type="line"/>
        <point x="1.000" y="304.750"/>

        <point x="-158.750" y="145.000"/>
        <point x="-354.000" y="145.000" type="curve" smooth="yes"/>
        <point x="355.000" y="145.000" type="line"/>
        <point x="159.750" y="145.000"/>

        <point x="0.000" y="304.750"/>
        <point x="0.000" y="500.000" type="curve" smooth="yes"/>
        <point x="0.000" y="500.000" type="line"/>
    </contour>
  </outline>
</glyph>
<glyph name="_80.clip" format="2">
  <advance width="1000"/>
  
  <outline>
    <contour>
        <point x="0.000" y="620.000"/>

        <point x="180.000" y="800.000"/>
        <point x="400.000" y="800.000" type="curve" smooth="yes"/>
        <point x="-399.000" y="800.000" type="line"/>
        <point x="-179.000" y="800.000"/>

        <point x="1.000" y="620.000"/>
        <point x="1.000" y="400.000" type="curve" smooth="yes"/>
        <point x="1.000" y="400.000" type="line"/>
        <point x="1.000" y="180.000"/>

        <point x="-179.000" y="0.000"/>
        <point x="-399.000" y="0.000" type="curve" smooth="yes"/>
        <point x="400.000" y="0.000" type="line"/>
        <point x="180.000" y="0.000"/>

        <point x="0.000" y="180.000"/>
        <point x="0.000" y="400.000" type="curve" smooth="yes"/>
        <point x="0.000" y="400.000" type="line"/>
    </contour>
  </outline>
</glyph>
<glyph name="_81.clip.center" format="2">
  <advance width="1000"/>
  
  <outline>
    <contour>
        <point x="0.000" y="722.750"/>

        <point x="182.250" y="905.000"/>
        <point x="405.000" y="905.000" type="curve" smooth="yes"/>
        <point x="-404.000" y="905.000" type="line"/>
        <point x="-181.250" y="905.000"/>

        <point x="1.000" y="722.750"/>
        <point x="1.000" y="500.000" type="curve" smooth="yes"/>
        <point x="1.000" y="500.000" type="line"/>
        <point x="1.000" y="277.250"/>

        <point x="-181.250" y="95.000"/>
        <point x="-404.000" y="95.000" type="curve" smooth="yes"/>
        <point x="405.000" y="95.000" type="line"/>
        <point x="182.250" y="95.000"/>

        <point x="0.000" y="277.250"/>
        <point x="0.000" y="500.000" type="curve" smooth="yes"/>
        <point x="0.000" y="500.000" type="line"/>
    </contour>
  </outline>
</glyph>
<glyph name="_82.clip.center" format="2">
  <advance width="1000"/>
  
  <outline>
    <contour>
        <point x="0.000" y="725.500"/>

        <point x="184.500" y="910.000"/>
        <point x="410.000" y="910.000" type="curve" smooth="yes"/>
        <point x="-409.000" y="910.000" type="line"/>
        <point x="-183.500" y="910.000"/>

        <point x="1.000" y="725.500"/>
        <point x="1.000" y="500.000" type="curve" smooth="yes"/>
        <point x="1.000" y="500.000" type="line"/>
        <point x="1.000" y="274.500"/>

        <point x="-183.500" y="90.000"/>
        <point x="-409.000" y="90.000" type="curve" smooth="yes"/>
        <point x="410.000" y="90.000" type="line"/>
        <point x="184.500" y="90.000"/>

        <point x="0.000" y="274.500"/>
        <point x="0.000" y="500.000" type="curve" smooth="yes"/>
        <point x="0.000" y="500.000" type="line"/>
    </contour>
  </outline>
</glyph>
<glyph name="_84.clip.center" format="2">
  <advance width="1000"/>
  
  <outline>
    <contour>
        <point x="0.000" y="731.000"/>

        <point x="189.000" y="920.000"/>
        <point x="420.000" y="920.000" type="curve" smooth="yes"/>
        <point x="-419.000" y="920.000" type="line"/>
        <point x="-188.000" y="920.000"/>

        <point x="1.000" y="731.000"/>
        <point x="1.000" y="500.000" type="curve" smooth="yes"/>
        <point x="1.000" y="500.000" type="line"/>
        <point x="1.000" y="269.000"/>

        <point x="-188.000" y="80.000"/>
        <point x="-419.000" y="80.000" type="curve" smooth="yes"/>
        <point x="420.000" y="80.000" type="line"/>
        <point x="189.000" y="80.000"/>

        <point x="0.000" y="269.000"/>
        <point x="0.000" y="500.000" type="curve" smooth="yes"/>
        <point x="0.000" y="500.000" type="line"/>
    </contour>
  </outline>
</glyph>
<glyph name="_84.clip" format="2">
  <advance width="1000"/>
  
  <outline>
    <contour>
        <point x="0.000" y="651.000"/>

        <point x="189.000" y="840.000"/>
        <point x="420.000" y="840.000" type="curve" smooth="yes"/>
        <point x="-419.000" y="840.000" type="line"/>
        <point x="-188.000" y="840.000"/>

        <point x="1.000" y="651.000"/>
        <point x="1.000" y="420.000" type="curve" smooth="yes"/>
        <point x="1.000" y="420.000" type="line"/>
        <point x="1.000" y="189.000"/>

        <point x="-188.000" y="0.000"/>
        <point x="-419.000" y="0.000" type="curve" smooth="yes"/>
        <point x="420.000" y="0.000" type="line"/>
        <point x="189.000" y="0.000"/>

        <point x="0.000" y="189.000"/>
        <point x="0.000" y="420.000" type="curve" smooth="yes"/>
        <point x="0.000" y="420.000" type="line"/>
    </contour>
  </outline>
</glyph>
<glyph name="_85.clip" format="2">
  <advance width="1000"/>
  
  <outline>
    <contour>
        <point x="0.000" y="658.750"/>

        <point x="191.250" y="850.000"/>
        <point x="425.000" y="850.000" type="curve" smooth="yes"/>
        <point x="-424.000" y="850.000" type="line"/>
        <point x="-190.250" y="850.000"/>

        <point x="1.000" y="658.750"/>
        <point x="1.000" y="425.000" type="curve" smooth="yes"/>
        <point x="1.000" y="425.000" type="line"/>
        <point x="1.000" y="191.250"/>

        <point x="-190.250" y="0.000"/>
        <point x="-424.000" y="0.000" type="curve" smooth="yes"/>
        <point x="425.000" y="0.000" type="line"/>
        <point x="191.250" y="0.000"/>

        <point x="0.000" y="191.250"/>
        <point x="0.000" y="425.000" type="curve" smooth="yes"/>
        <point x="0.000" y="425.000" type="line"/>
    </contour>
  </outline>
</glyph>
<glyph name="_89.clip.center" format="2">
  <advance width="1000"/>
  
  <outline>
    <contour>
        <point x="0.000" y="744.750"/>

        <point x="200.250" y="945.000"/>
        <point x="445.000" y="945.000" type="curve" smooth="yes"/>
        <point x="-444.000" y="945.000" type="line"/>
        <point x="-199.250" y="945.000"/>

        <point x="1.000" y="744.750"/>
        <point x="1.000" y="500.000" type="curve" smooth="yes"/>
        <point x="1.000" y="500.000" type="line"/>
        <point x="1.000" y="255.250"/>

        <point x="-199.250" y="55.000"/>
        <point x="-444.000" y="55.000" type="curve" smooth="yes"/>
        <point x="445.000" y="55.000" type="line"/>
        <point x="200.250" y="55.000"/>

        <point x="0.000" y="255.250"/>
        <point x="0.000" y="500.000" type="curve" smooth="yes"/>
        <point x="0.000" y="500.000" type="line"/>
    </contour>
  </outline>
</glyph>
<glyph name="_95.clip.center" format="2">
  <advance width="1000"/>
  
  <outline>
    <contour>
        <point x="0.000" y="761.250"/>

        <point x="213.750" y="975.000"/>
        <point x="475.000" y="975.000" type="curve" smooth="yes"/>
        <point x="-474.000" y="975.000" type="line"/>
        <point x="-212.750" y="975.000"/>

        <point x="1.000" y="761.250"/>
        <point x="1.000" y="500.000" type="curve" smooth="yes"/>
        <point x="1.000" y="500.000" type="line"/>
        <point x="1.000" y="238.750"/>

        <point x="-212.750" y="25.000"/>
        <point x="-474.000" y="25.000" type="curve" smooth="yes"/>
        <point x="475.000" y="25.000" type="line"/>
        <point x="213.750" y="25.000"/>

        <point x="0.000" y="238.750"/>
        <point x="0.000" y="500.000" type="curve" smooth="yes"/>
        <point x="0.000" y="500.000" type="line"/>
    </contour>
  </outline>
</glyph>
<glyph name="_95.clip" format="2">
  <advance width="1000"/>
  
  <outline>
    <contour>
        <point x="0.000" y="736.250"/>

        <point x="213.750" y="950.000"/>
        <point x="475.000" y="950.000" type="curve" smooth="yes"/>
        <point x="-474.000" y="950.000" type="line"/>
        <point x="-212.750" y="950.000"/>

        <point x="1.000" y="736.250"/>
        <point x="1.000" y="475.000" type="curve" smooth="yes"/>
        <point x="1.000" y="475.000" type="line"/>
        <point x="1.000" y="213.750"/>

        <point x="-212.750" y="0.000"/>
        <point x="-474.000" y="0.000" type="curve" smooth="yes"/>
        <point x="475.000" y="0.000" type="line"/>
        <point x="213.750" y="0.000"/>

        <point x="0.000" y="213.750"/>
        <point x="0.000" y="475.000" type="curve" smooth="yes"/>
        <point x="0.000" y="475.000" type="line"/>
    </contour>
  </outline>
</glyph>
<glyph name="_98.clip" format="2">
  <advance width="1000"/>
  
  <outline>
    <contour>
        <point x="0.000" y="759.500"/>

        <point x="220.500" y="980.000"/>
        <point x="490.000" y="980.000" type="curve" smooth="yes"/>
        <point x="-489.000" y="980.000" type="line"/>
        <point x="-219.500" y="980.000"/>

        <point x="1.000" y="759.500"/>
        <point x="1.000" y="490.000" type="curve" smooth="yes"/>
        <point x="1.000" y="490.000" type="line"/>
        <point x="1.000" y="220.500"/>

        <point x="-219.500" y="0.000"/>
        <point x="-489.000" y="0.000" type="curve" smooth="yes"/>
        <point x="490.000" y="0.000" type="line"/>
        <point x="220.500" y="0.000"/>

        <point x="0.000" y="220.500"/>
        <point x="0.000" y="490.000" type="curve" smooth="yes"/>
        <point x="0.000" y="490.000" type="line"/>
    </contour>
  </outline>
</glyph>
<glyph name="_99.clip.center" format="2">
  <advance width="1000"/>
  
  <outline>
    <contour>
        <point x="0.000" y="772.250"/>

        <point x="222.750" y="995.000"/>
        <point x="495.000" y="995.000" type="curve" smooth="yes"/>
        <point x="-494.000" y="995.000" type="line"/>
        <point x="-221.750" y="995.000"/>

        <point x="1.000" y="772.250"/>
        <point x="1.000" y="500.000" type="curve" smooth="yes"/>
        <point x="1.000" y="500.000" type="line"/>
        <point x="1.000" y="227.750"/>

        <point x="-221.750" y="5.000"/>
        <point x="-494.000" y="5.000" type="curve" smooth="yes"/>
        <point x="495.000" y="5.000" type="line"/>
        <point x="222.750" y="5.000"/>

        <point x="0.000" y="227.750"/>
        <point x="0.000" y="500.000" type="curve" smooth="yes"/>
        <point x="0.000" y="500.000" type="line"/>
    </contour>
  </outline>
</glyph>
